<?xml version="1.0" encoding="utf-8"?>
<!-- Generator: Adobe Illustrator 26.2.1, SVG Export Plug-In . SVG Version: 6.00 Build 0)  -->
<svg version="1.1" id="Layer_1" xmlns="http://www.w3.org/2000/svg" xmlns:xlink="http://www.w3.org/1999/xlink" x="0px" y="0px"
	 viewBox="0 0 334.23 290.73" style="enable-background:new 0 0 334.23 290.73;" xml:space="preserve">
<style type="text/css">
	.st0{fill:#998367;}
	.st1{fill:#E5E4E4;}
</style>
<g>
	<polygon class="st0" points="63.85,157.41 73.87,167.43 92.59,148.71 110.47,166.6 120.49,156.58 92.59,128.67 	"/>
	<polygon class="st0" points="10.81,98.34 17.05,111.07 93.51,73.6 167.21,111.02 173.62,98.39 93.63,57.76 	"/>
	<polygon class="st0" points="184.41,13.66 180.57,0.02 93.75,24.44 3.71,0 0,13.68 77.26,34.65 0,55.63 3.71,69.3 93.75,44.86 
		180.57,69.29 184.41,55.64 109.8,34.65 	"/>
	<polygon class="st0" points="32.53,134.19 40.9,145.62 93.09,107.39 143.34,145.55 151.91,134.26 93.24,89.71 	"/>
</g>
<g>
	<g>
		<path class="st1" d="M87.11,193.25h22.59v4.59H91.99v11.33h16.5v4.59h-16.5v15.61h-4.87V193.25z"/>
		<path class="st1" d="M137.84,230.29c-2.74,0-5.26-0.48-7.57-1.45c-2.3-0.97-4.27-2.3-5.92-4c-1.64-1.7-2.93-3.71-3.86-6.02
			c-0.93-2.31-1.4-4.81-1.4-7.5s0.46-5.19,1.4-7.5c0.93-2.31,2.22-4.32,3.86-6.02c1.64-1.7,3.61-3.04,5.92-4
			c2.3-0.97,4.82-1.45,7.57-1.45s5.26,0.48,7.57,1.45c2.3,0.97,4.27,2.3,5.92,4c1.64,1.7,2.93,3.71,3.86,6.02
			c0.93,2.31,1.4,4.81,1.4,7.5s-0.47,5.19-1.4,7.5c-0.93,2.31-2.22,4.32-3.86,6.02c-1.64,1.7-3.61,3.04-5.92,4
			C143.1,229.8,140.58,230.29,137.84,230.29z M137.84,225.7c2.06,0,3.93-0.38,5.58-1.15c1.66-0.76,3.08-1.79,4.27-3.09
			c1.18-1.29,2.1-2.81,2.74-4.57c0.64-1.75,0.96-3.61,0.96-5.59s-0.32-3.83-0.96-5.59c-0.64-1.75-1.56-3.27-2.74-4.57
			c-1.19-1.29-2.61-2.32-4.27-3.09c-1.66-0.76-3.52-1.15-5.58-1.15c-2.06,0-3.93,0.38-5.58,1.15c-1.66,0.77-3.08,1.79-4.27,3.09
			c-1.19,1.29-2.1,2.81-2.74,4.57c-0.64,1.75-0.96,3.61-0.96,5.59s0.32,3.83,0.96,5.59c0.64,1.75,1.56,3.27,2.74,4.57
			c1.18,1.29,2.61,2.32,4.27,3.09C133.91,225.31,135.77,225.7,137.84,225.7z"/>
		<path class="st1" d="M168.66,193.25h12.64c2.3,0,4.2,0.32,5.69,0.94c1.49,0.63,2.67,1.43,3.53,2.4c0.86,0.97,1.46,2.06,1.8,3.27
			c0.34,1.21,0.51,2.37,0.51,3.49c0,1.16-0.2,2.27-0.61,3.34s-0.99,2.04-1.75,2.91s-1.69,1.6-2.79,2.19c-1.1,0.6-2.33,0.96-3.68,1.1
			l10.21,16.48h-6.09l-9.14-15.92h-5.43v15.92h-4.87V193.25z M173.53,209.17h6.4c0.95,0,1.89-0.08,2.82-0.23
			c0.93-0.15,1.76-0.43,2.49-0.84c0.73-0.41,1.31-1,1.75-1.76c0.44-0.76,0.66-1.76,0.66-2.98s-0.22-2.22-0.66-2.98
			c-0.44-0.77-1.02-1.35-1.75-1.76c-0.73-0.41-1.56-0.69-2.49-0.84c-0.93-0.15-1.87-0.23-2.82-0.23h-6.4V209.17z"/>
		<path class="st1" d="M204.76,193.25h12.64c2.3,0,4.2,0.32,5.69,0.94c1.49,0.63,2.67,1.43,3.53,2.4c0.86,0.97,1.46,2.06,1.8,3.27
			c0.34,1.21,0.51,2.37,0.51,3.49c0,1.16-0.2,2.27-0.61,3.34s-0.99,2.04-1.75,2.91c-0.76,0.87-1.69,1.6-2.79,2.19
			c-1.1,0.6-2.33,0.96-3.68,1.1l10.21,16.48h-6.09l-9.14-15.92h-5.43v15.92h-4.87V193.25z M209.63,209.17h6.4
			c0.95,0,1.89-0.08,2.82-0.23c0.93-0.15,1.76-0.43,2.49-0.84c0.73-0.41,1.31-1,1.75-1.76c0.44-0.76,0.66-1.76,0.66-2.98
			s-0.22-2.22-0.66-2.98c-0.44-0.77-1.02-1.35-1.75-1.76c-0.73-0.41-1.56-0.69-2.49-0.84c-0.93-0.15-1.87-0.23-2.82-0.23h-6.4
			V209.17z"/>
		<path class="st1" d="M240.86,193.25h23.2v4.59h-18.33v10.76h17.06v4.59h-17.06v11.58h19.24v4.59h-24.12V193.25z"/>
		<path class="st1" d="M278.02,221.82c0.88,1.33,2.01,2.3,3.38,2.93c1.37,0.63,2.78,0.94,4.24,0.94c0.81,0,1.64-0.13,2.49-0.38
			c0.85-0.25,1.62-0.64,2.31-1.15c0.69-0.51,1.26-1.14,1.7-1.89c0.44-0.75,0.66-1.62,0.66-2.6c0-1.39-0.44-2.46-1.32-3.19
			c-0.88-0.73-1.97-1.34-3.27-1.84c-1.3-0.49-2.73-0.97-4.27-1.43s-2.96-1.1-4.26-1.91c-1.3-0.82-2.4-1.91-3.28-3.29
			c-0.88-1.38-1.32-3.24-1.32-5.59c0-1.05,0.23-2.18,0.69-3.37c0.46-1.19,1.17-2.28,2.16-3.26c0.98-0.99,2.24-1.81,3.78-2.47
			c1.54-0.66,3.39-1,5.56-1c1.96,0,3.84,0.27,5.64,0.82c1.79,0.54,3.37,1.65,4.72,3.32l-3.96,3.62c-0.61-0.95-1.47-1.72-2.59-2.3
			c-1.12-0.58-2.39-0.87-3.81-0.87c-1.35,0-2.48,0.18-3.38,0.54c-0.9,0.36-1.62,0.82-2.16,1.38c-0.54,0.56-0.92,1.17-1.14,1.81
			c-0.22,0.65-0.33,1.24-0.33,1.79c0,1.53,0.44,2.7,1.32,3.52c0.88,0.82,1.97,1.48,3.27,1.99c1.3,0.51,2.72,0.97,4.27,1.38
			c1.54,0.41,2.96,0.98,4.26,1.71c1.3,0.73,2.39,1.72,3.27,2.96c0.88,1.24,1.32,2.95,1.32,5.13c0,1.73-0.33,3.3-0.99,4.69
			c-0.66,1.39-1.55,2.57-2.67,3.52c-1.12,0.95-2.44,1.68-3.96,2.19c-1.52,0.51-3.15,0.76-4.87,0.76c-2.3,0-4.49-0.41-6.55-1.22
			c-2.07-0.82-3.71-2.07-4.92-3.78L278.02,221.82z"/>
		<path class="st1" d="M317.78,197.84H306.2v-4.59h28.03v4.59h-11.58v31.53h-4.88V197.84z"/>
		<path class="st1" d="M87.11,254.47h4.87V286h16.5v4.59H87.11V254.47z"/>
		<path class="st1" d="M129.82,254.47h4.42l15.38,36.12h-5.69l-3.6-8.93h-17.11l-3.55,8.93h-5.69L129.82,254.47z M138.55,277.38
			l-6.7-16.58h-0.1l-6.8,16.58H138.55z"/>
		<path class="st1" d="M159.37,254.47h12.49c1.56,0,3,0.19,4.34,0.56c1.34,0.38,2.49,0.93,3.45,1.66s1.73,1.67,2.29,2.81
			c0.56,1.14,0.84,2.47,0.84,4c0,2.08-0.58,3.77-1.73,5.08c-1.15,1.31-2.64,2.27-4.47,2.88v0.1c1.08,0.07,2.1,0.35,3.05,0.84
			c0.95,0.49,1.77,1.14,2.46,1.94c0.69,0.8,1.24,1.73,1.65,2.78c0.41,1.05,0.61,2.19,0.61,3.42c0,1.63-0.33,3.07-0.99,4.31
			c-0.66,1.24-1.57,2.29-2.72,3.14c-1.15,0.85-2.49,1.5-4.01,1.94c-1.52,0.44-3.17,0.66-4.93,0.66h-12.34V254.47z M164.24,269.47
			h6.65c0.91,0,1.78-0.09,2.59-0.28c0.81-0.19,1.52-0.5,2.13-0.94s1.09-1,1.45-1.68c0.35-0.68,0.53-1.51,0.53-2.5
			c0-1.43-0.46-2.67-1.37-3.72c-0.91-1.05-2.35-1.58-4.32-1.58h-7.67V269.47z M164.24,286.3h7.16c0.74,0,1.57-0.08,2.46-0.23
			c0.9-0.15,1.73-0.46,2.51-0.92c0.78-0.46,1.44-1.08,1.98-1.86c0.54-0.78,0.81-1.82,0.81-3.11c0-2.14-0.69-3.75-2.08-4.82
			c-1.39-1.07-3.27-1.61-5.64-1.61h-7.21V286.3z"/>
	</g>
</g>
</svg>
