<svg width="120" height="100" viewBox="0 0 120 100" fill="none" xmlns="http://www.w3.org/2000/svg">
<g clip-path="url(#clip0_261_801)">
<path d="M68.7804 4.89483L67.4358 0L34.3902 8.85592L1.34458 0L0 4.89483L28.4061 12.5106L0 20.1191L1.34458 25.014L34.3902 16.158L67.4358 25.014L68.7804 20.1191L40.3743 12.5033L68.7804 4.89483Z" fill="#191919"/>
<path d="M64.3849 35.234L34.3905 20.7173L4.396 35.234L6.65666 39.786L34.3905 26.3562L62.1243 39.786L64.3849 35.234Z" fill="#191919"/>
<path d="M56.3765 47.8397L34.3904 31.937L12.4043 47.8397L15.4407 51.9248L34.3904 38.2179L53.3401 51.9248L56.3765 47.8397Z" fill="#191919"/>
<path d="M44.918 56.564L34.3904 45.3081L23.8628 56.564L27.6306 59.9999L34.3904 52.778L41.1503 59.9999L44.918 56.564Z" fill="#191919"/>
<path d="M32.1953 66.9956H40.3026V68.6419H33.9441V72.7029H39.8636V74.3492H33.9441V79.9468H32.1953V66.9883V66.9956Z" fill="#191919"/>
<path d="M50.7659 80.2763C49.7854 80.2763 48.8781 80.1006 48.0513 79.7567C47.2244 79.4128 46.5147 78.9299 45.9293 78.3226C45.3439 77.7153 44.8757 76.9909 44.5464 76.1641C44.2098 75.3372 44.0488 74.4372 44.0488 73.4714C44.0488 72.5055 44.2171 71.6128 44.5464 70.7787C44.883 69.9519 45.3439 69.2275 45.9293 68.6202C46.5147 68.0128 47.2244 67.5299 48.0513 67.186C48.8781 66.8348 49.7781 66.6665 50.7659 66.6665C51.7537 66.6665 52.6537 66.8421 53.4805 67.186C54.3074 67.5372 55.0098 68.0128 55.6025 68.6202C56.1878 69.2275 56.6488 69.9519 56.9854 70.7787C57.322 71.6055 57.483 72.5055 57.483 73.4714C57.483 74.4372 57.3147 75.3299 56.9854 76.1641C56.6488 76.9909 56.1878 77.7153 55.6025 78.3226C55.0171 78.9299 54.3074 79.4128 53.4805 79.7567C52.6537 80.108 51.7537 80.2763 50.7659 80.2763ZM50.7659 78.6299C51.5049 78.6299 52.1708 78.4909 52.7708 78.2202C53.3635 77.9494 53.8757 77.5763 54.3 77.1153C54.7244 76.6543 55.0537 76.1055 55.2805 75.4763C55.5074 74.847 55.6244 74.1811 55.6244 73.4714C55.6244 72.7616 55.5074 72.0958 55.2805 71.4665C55.0464 70.8372 54.7244 70.2958 54.3 69.8275C53.8757 69.3665 53.3635 68.9933 52.7708 68.7226C52.1781 68.4519 51.5049 68.3128 50.7659 68.3128C50.0269 68.3128 49.3537 68.4519 48.761 68.7226C48.1683 69.0006 47.6561 69.3665 47.2318 69.8275C46.8074 70.2885 46.4781 70.8372 46.2513 71.4665C46.0171 72.0958 45.9074 72.7616 45.9074 73.4714C45.9074 74.1811 46.0244 74.847 46.2513 75.4763C46.4781 76.1055 46.8074 76.6543 47.2318 77.1153C47.6561 77.5763 48.1683 77.9494 48.761 78.2202C49.3537 78.4982 50.0269 78.6299 50.7659 78.6299Z" fill="#191919"/>
<path d="M61.5586 66.9956H66.0952C66.922 66.9956 67.6025 67.1054 68.1366 67.3322C68.6708 67.559 69.0952 67.8444 69.4025 68.1956C69.7098 68.5468 69.9293 68.9346 70.0464 69.3663C70.1708 69.798 70.2293 70.2151 70.2293 70.6176C70.2293 71.02 70.1561 71.4298 70.0098 71.8176C69.8635 72.2054 69.6513 72.5493 69.3805 72.8639C69.1098 73.1785 68.7732 73.4346 68.3781 73.6541C67.983 73.8663 67.544 73.998 67.061 74.0493L70.7196 79.9615H68.5318L65.2537 74.2541H63.3074V79.9615H61.5586V67.0029V66.9956ZM63.3074 72.7029H65.6049C65.9415 72.7029 66.2781 72.6737 66.6147 72.6224C66.9513 72.5639 67.244 72.4688 67.5074 72.3224C67.7708 72.1761 67.9757 71.9639 68.1366 71.6932C68.2976 71.4224 68.3708 71.0639 68.3708 70.6249C68.3708 70.1859 68.2903 69.8273 68.1366 69.5566C67.983 69.2858 67.7708 69.0737 67.5074 68.9273C67.244 68.781 66.9513 68.6785 66.6147 68.6273C66.2781 68.5688 65.9415 68.5468 65.6049 68.5468H63.3074V72.7176V72.7029Z" fill="#191919"/>
<path d="M74.3052 66.9956H78.8418C79.6686 66.9956 80.3491 67.1054 80.8832 67.3322C81.4174 67.559 81.8418 67.8444 82.1491 68.1956C82.4564 68.5468 82.6759 68.9346 82.793 69.3663C82.9174 69.798 82.9759 70.2151 82.9759 70.6176C82.9759 71.02 82.9027 71.4298 82.7564 71.8176C82.6101 72.2054 82.3979 72.5493 82.1271 72.8639C81.8564 73.1785 81.5198 73.4346 81.1247 73.6541C80.7296 73.8663 80.2905 73.998 79.8076 74.0493L83.4661 79.9615H81.2783L78.0003 74.2541H76.054V79.9615H74.3052V67.0029V66.9956ZM76.054 72.7029H78.3515C78.6881 72.7029 79.0247 72.6737 79.3613 72.6224C79.6979 72.5639 79.9905 72.4688 80.254 72.3224C80.5174 72.1761 80.7222 71.9639 80.8832 71.6932C81.0442 71.4224 81.1174 71.0639 81.1174 70.6249C81.1174 70.1859 81.0369 69.8273 80.8832 69.5566C80.7296 69.2858 80.5174 69.0737 80.254 68.9273C79.9905 68.781 79.6979 68.6785 79.3613 68.6273C79.0247 68.5688 78.6881 68.5468 78.3515 68.5468H76.054V72.7176V72.7029Z" fill="#191919"/>
<path d="M87.0366 66.9956H95.3561V68.6419H88.7854V72.5054H94.9025V74.1517H88.7854V78.3078H95.6854V79.9541H87.0366V66.9956Z" fill="#191919"/>
<path d="M100.024 77.2397C100.339 77.7153 100.742 78.0665 101.239 78.2933C101.729 78.5202 102.234 78.6299 102.761 78.6299C103.054 78.6299 103.346 78.586 103.654 78.4909C103.954 78.4031 104.232 78.2641 104.481 78.0811C104.729 77.8982 104.934 77.6714 105.088 77.408C105.249 77.1372 105.322 76.8299 105.322 76.4714C105.322 75.9738 105.161 75.5933 104.846 75.3299C104.532 75.0665 104.137 74.847 103.668 74.6714C103.2 74.4958 102.688 74.3202 102.139 74.1592C101.59 73.9982 101.078 73.7641 100.61 73.4714C100.142 73.1787 99.7537 72.7836 99.4318 72.2933C99.1171 71.8031 98.9562 71.1299 98.9562 70.2885C98.9562 69.908 99.0367 69.5055 99.205 69.0811C99.3659 68.6567 99.6293 68.2616 99.9806 67.9104C100.332 67.5592 100.785 67.2592 101.334 67.025C101.883 66.7836 102.549 66.6665 103.332 66.6665C104.034 66.6665 104.707 66.7616 105.351 66.9592C105.995 67.1567 106.559 67.5519 107.042 68.1519L105.622 69.4543C105.403 69.1104 105.095 68.8397 104.693 68.6275C104.29 68.4226 103.837 68.3128 103.324 68.3128C102.812 68.3128 102.432 68.3787 102.11 68.5031C101.788 68.6348 101.532 68.7958 101.334 69.0007C101.137 69.2055 101.005 69.4177 100.924 69.6519C100.844 69.886 100.807 70.0982 100.807 70.2958C100.807 70.8445 100.968 71.2689 101.283 71.5616C101.598 71.8543 101.993 72.0958 102.461 72.2787C102.929 72.4616 103.442 72.6226 103.99 72.7689C104.539 72.9153 105.051 73.1202 105.52 73.3836C105.988 73.647 106.376 73.9982 106.698 74.4445C107.012 74.8909 107.173 75.5055 107.173 76.2811C107.173 76.9031 107.056 77.4665 106.815 77.9641C106.581 78.4616 106.259 78.886 105.856 79.2299C105.454 79.5738 104.985 79.8372 104.437 80.0202C103.888 80.2031 103.31 80.2909 102.688 80.2909C101.861 80.2909 101.078 80.1445 100.339 79.8519C99.6001 79.5592 99.0074 79.1055 98.5757 78.4982L100.017 77.2543L100.024 77.2397Z" fill="#191919"/>
<path d="M114.095 68.6419H109.946V66.9956H120V68.6419H115.851V79.9541H114.102V68.6419H114.095Z" fill="#191919"/>
<path d="M32.1953 87.0211H33.9441V98.3332H39.8636V99.9796H32.1953V87.0211Z" fill="#191919"/>
<path d="M61.5366 87.0411H66.0147C66.5708 87.0411 67.0903 87.107 67.5732 87.246C68.0561 87.3777 68.4659 87.5753 68.8098 87.8387C69.1537 88.1021 69.4317 88.4387 69.6293 88.8485C69.8268 89.2582 69.9293 89.7338 69.9293 90.2826C69.9293 91.0289 69.7244 91.6363 69.3073 92.1046C68.8976 92.5728 68.3634 92.9167 67.7049 93.1363V93.1728C68.0927 93.1948 68.4586 93.2972 68.7951 93.4728C69.1317 93.6484 69.4317 93.8826 69.6805 94.168C69.9293 94.4533 70.1268 94.7899 70.2732 95.1631C70.4195 95.5436 70.4927 95.9533 70.4927 96.3924C70.4927 96.9777 70.3756 97.4899 70.1342 97.9363C69.9 98.3826 69.5708 98.7558 69.161 99.0631C68.7512 99.3704 68.2683 99.5972 67.7195 99.7582C67.1708 99.9192 66.5854 99.9997 65.9561 99.9997H61.5293V87.0411H61.5366ZM63.2854 92.4192H65.6708C66 92.4192 66.3073 92.3826 66.6 92.3167C66.8927 92.2509 67.1488 92.1338 67.3683 91.9802C67.5878 91.8265 67.7634 91.6216 67.8878 91.3728C68.0122 91.1314 68.0781 90.8314 68.0781 90.4728C68.0781 89.9606 67.9171 89.5143 67.5878 89.1338C67.2586 88.7533 66.7464 88.5631 66.0366 88.5631H63.2854V92.4045V92.4192ZM63.2854 98.4558H65.8537C66.1171 98.4558 66.4171 98.4265 66.739 98.3753C67.061 98.3167 67.361 98.2143 67.639 98.046C67.9171 97.885 68.1512 97.6582 68.3488 97.3801C68.5464 97.1021 68.6415 96.7289 68.6415 96.2606C68.6415 95.4923 68.3927 94.9143 67.8951 94.5338C67.3976 94.146 66.7244 93.9558 65.8756 93.9558H63.2927V98.4558H63.2854Z" fill="#191919"/>
<path d="M51.4637 87.0411H50.0003L44.3223 99.9996H46.2979L50.6954 89.3094H50.7686L55.1662 99.9996H57.1418L51.4637 87.0411Z" fill="#191919"/>
</g>
<defs>
<clipPath id="clip0_261_801">
<rect width="120" height="100" fill="white"/>
</clipPath>
</defs>
</svg>
