<?xml version="1.0" encoding="utf-8"?>
<!-- Generator: Adobe Illustrator 26.2.1, SVG Export Plug-In . SVG Version: 6.00 Build 0)  -->
<svg version="1.1" id="Layer_1" xmlns="http://www.w3.org/2000/svg" xmlns:xlink="http://www.w3.org/1999/xlink" x="0px" y="0px"
	 viewBox="0 0 94.96 83.9" style="enable-background:new 0 0 94.96 83.9;" xml:space="preserve">
<style type="text/css">
	.st0{fill:#191919;}
</style>
<g>
	<path class="st0" d="M94.96,6.84L93.11,0L47.48,12.38L1.86,0L0,6.84l39.22,10.65L0,28.13l1.86,6.84l45.63-12.38l45.63,12.38
		l1.86-6.84L55.74,17.48L94.96,6.84z"/>
	<polygon class="st0" points="88.89,49.27 47.48,28.96 6.07,49.27 9.19,55.63 47.48,36.86 85.77,55.63 	"/>
	<polygon class="st0" points="77.84,66.89 47.48,44.65 17.13,66.89 21.32,72.61 47.48,53.44 73.65,72.61 	"/>
	<polygon class="st0" points="62.02,79.09 47.48,63.36 32.95,79.09 38.15,83.9 47.48,73.8 56.81,83.9 	"/>
</g>
</svg>
